<?xml version="1.0" encoding="UTF-8"?><svg xmlns="http://www.w3.org/2000/svg" viewBox="0 0 393.63 123.12"><defs><style>.f{fill:#fff;}.g{fill:#ffb027;}</style></defs><g id="a"/><g id="b"><g id="c"><g id="d"><g id="e"><g><g><path class="f" d="M43.12,120.46c0,1.47-1.19,2.66-2.66,2.66h-10.86c-10.82,0-16.23-5.61-16.23-16.84v-31.41c0-.71-.29-1.4-.8-1.9L.8,61.42c-.51-.5-.8-1.18-.8-1.9v-.28c0-.72,.29-1.4,.8-1.9l11.77-11.47c.51-.5,.8-1.19,.8-1.9V16.84c0-11.23,5.42-16.84,16.24-16.84h10.86c1.47,0,2.66,1.19,2.66,2.66V11.28c0,1.53-1.29,2.75-2.82,2.65h-.1c-1.4-.1-2.49-.14-3.26-.14-5.25,0-7.88,1.9-7.88,5.7v24.04c0,2.58-.25,4.46-.75,5.64s-1.68,2.56-3.53,4.14l-4.95,4.09c-1.28,1.06-1.29,3.01-.02,4.08l4.97,4.19c1.86,1.58,3.06,3.01,3.6,4.28,.45,1.09,.68,2.85,.68,5.3v28.11c0,3.94,2.69,5.91,8.08,5.91,.72,0,1.77-.03,3.12-.1h.07c1.52-.08,2.78,1.13,2.78,2.65v8.65h0Z"/><path class="f" d="M123.88,61.42l-11.78,11.54c-.51,.5-.8,1.18-.8,1.9v31.41c0,11.23-5.43,16.84-16.3,16.84h-10.79c-1.47,0-2.66-1.19-2.66-2.66v-8.68c0-1.5,1.25-2.69,2.74-2.62h.04c1.36,.07,2.4,.1,3.12,.1,5.52,0,8.28-1.97,8.28-5.91v-28.11c0-2.54,.23-4.38,.68-5.54,.45-1.15,1.61-2.5,3.46-4.04l4.97-4.19c1.27-1.07,1.26-3.02-.02-4.08l-4.95-4.09c-1.86-1.54-3.03-2.96-3.53-4.28-.41-1.04-.61-2.87-.61-5.5V19.49c0-3.76-2.69-5.64-8.08-5.64-.77,0-1.86,.03-3.26,.1h-.08c-1.51,.08-2.78-1.13-2.78-2.65V2.66c0-1.47,1.19-2.66,2.66-2.66h10.79c10.87,0,16.3,5.61,16.3,16.84v27.13c0,.72,.29,1.4,.8,1.9l11.77,11.47c.51,.5,.8,1.19,.8,1.9v.28c0,.71-.29,1.4-.8,1.9h.03Z"/></g><path class="g" d="M87.46,45.66c-5.24-.52-9.66-1.21-15.43-.02-1.98,.56-3.7,1.57-7.19,3.73-4.91,3.06-4.31,4.68-12.73,5.16-8.14,.46-8.67-4.16-14.01-6.08-1.33-.48-2.73,.48-2.73,1.9v50.74c0,1.12,.91,2.03,2.03,2.03h49.87c1.12,0,2.03-.91,2.03-2.03V47.68c0-1.04-.8-1.92-1.84-2.02Zm-40.52,45.72c-2.79,0-5.04-2.26-5.04-5.04s2.26-5.04,5.04-5.04,5.04,2.26,5.04,5.04-2.26,5.04-5.04,5.04Zm18.73-14.52c-3.63,0-6.57-2.94-6.57-6.57s2.94-6.57,6.57-6.57,6.57,2.94,6.57,6.57-2.94,6.57-6.57,6.57Z"/><circle class="g" cx="73.77" cy="24.27" r="5.04"/><circle class="g" cx="54.21" cy="40.32" r="6.57"/><g><path class="g" d="M169.78,89.79h-23V48.26c0-1.69-.62-3.2-1.79-4.38-1.17-1.17-2.68-1.79-4.37-1.79s-3.13,.62-4.3,1.79c-1.17,1.17-1.79,2.68-1.79,4.37v47.69c0,1.68,.6,3.18,1.72,4.34,1.15,1.19,2.66,1.82,4.37,1.82h29.16c1.69,0,3.2-.62,4.37-1.79s1.79-2.68,1.79-4.38-.62-3.21-1.79-4.38-2.68-1.79-4.37-1.79v.03Z"/><path class="g" d="M210.14,61.22h0c-3.29-1.94-7.03-2.92-11.13-2.92s-7.85,.98-11.16,2.91c-3.3,1.93-5.95,4.59-7.88,7.91-1.93,3.33-2.91,7.12-2.91,11.26s.89,7.86,2.66,11.15c1.77,3.31,4.24,5.97,7.32,7.91,3.11,1.96,6.67,2.96,10.56,2.96s7.44-.99,10.56-2.96c.37-.23,.73-.48,1.09-.73,.29,.63,.69,1.21,1.2,1.72,1.15,1.15,2.65,1.76,4.34,1.76s3.19-.61,4.34-1.75c1.15-1.15,1.75-2.65,1.75-4.34v-15.71c0-4.14-.98-7.92-2.91-11.26-1.92-3.32-4.56-5.98-7.83-7.91h0Zm-2.48,24.7c-.88,1.62-2.03,2.85-3.55,3.78-1.49,.91-3.16,1.36-5.1,1.36s-3.56-.45-5.08-1.36c-1.54-.93-2.72-2.17-3.61-3.79-.9-1.63-1.34-3.44-1.34-5.52s.44-3.95,1.34-5.59c.9-1.62,2.08-2.86,3.61-3.79,1.52-.92,3.18-1.36,5.08-1.36s3.61,.44,5.1,1.36c1.51,.93,2.67,2.16,3.55,3.78,.89,1.64,1.32,3.48,1.32,5.61s-.43,3.9-1.32,5.54v-.02Z"/><path class="g" d="M260.43,61.26h0c-3.12-1.96-6.67-2.96-10.56-2.96-3.14,0-6.09,.67-8.75,1.99-.82,.4-1.6,.85-2.34,1.35v-13.45c0-1.74-.59-3.25-1.72-4.38-1.13-1.12-2.64-1.72-4.37-1.72s-3.17,.58-4.31,1.69c-1.17,1.13-1.78,2.65-1.78,4.4v32.15c.05,4.12,1.04,7.89,2.94,11.21,1.9,3.33,4.53,6,7.81,7.92,3.29,1.94,7.03,2.92,11.13,2.92s7.91-.98,11.2-2.92c3.27-1.93,5.91-4.59,7.83-7.91,1.93-3.33,2.91-7.12,2.91-11.26s-.89-7.86-2.66-11.15c-1.77-3.31-4.24-5.97-7.32-7.91v.03Zm-20.63,13.5c.87-1.59,2.04-2.82,3.57-3.75,1.52-.92,3.18-1.37,5.08-1.37s3.61,.44,5.1,1.36c1.52,.93,2.7,2.17,3.6,3.77,.9,1.61,1.34,3.42,1.34,5.54s-.44,3.9-1.35,5.56c-.9,1.64-2.07,2.89-3.59,3.82-1.49,.91-3.16,1.36-5.1,1.36s-3.56-.45-5.08-1.36c-1.53-.92-2.69-2.16-3.56-3.8-.89-1.66-1.32-3.49-1.32-5.58s.43-3.95,1.31-5.56h0Z"/><path class="g" d="M308.73,52.18c1.1-1.1,1.68-2.55,1.68-4.2s-.58-3.1-1.68-4.2c-1.1-1.1-2.55-1.68-4.2-1.68h-37.69c-1.65,0-3.1,.58-4.2,1.68s-1.68,2.55-1.68,4.2,.58,3.1,1.68,4.2c1.1,1.1,2.55,1.68,4.2,1.68h12.72v42.09c0,1.69,.62,3.21,1.79,4.37,1.17,1.17,2.68,1.79,4.37,1.79s3.2-.62,4.37-1.79c1.17-1.17,1.79-2.68,1.79-4.37V53.86h12.65c1.65,0,3.1-.58,4.2-1.68Z"/><path class="g" d="M333.35,61.22h0c-3.29-1.94-7.03-2.92-11.13-2.92s-7.85,.98-11.16,2.91c-3.3,1.93-5.95,4.59-7.88,7.91-1.93,3.33-2.91,7.12-2.91,11.26s.89,7.86,2.66,11.15c1.77,3.31,4.24,5.97,7.32,7.91,3.11,1.96,6.67,2.96,10.56,2.96s7.44-.99,10.56-2.96c.37-.23,.73-.48,1.09-.73,.29,.63,.69,1.21,1.2,1.72,1.15,1.15,2.65,1.76,4.34,1.76s3.19-.61,4.34-1.75c1.15-1.15,1.75-2.65,1.75-4.34v-15.71c0-4.14-.98-7.92-2.91-11.26-1.92-3.32-4.56-5.98-7.83-7.91Zm-2.48,24.7c-.88,1.62-2.03,2.85-3.55,3.78-1.49,.91-3.16,1.36-5.1,1.36s-3.56-.45-5.08-1.36c-1.54-.93-2.72-2.17-3.61-3.79-.9-1.63-1.34-3.44-1.34-5.52s.44-3.95,1.34-5.59c.9-1.62,2.08-2.86,3.61-3.79,1.52-.92,3.18-1.36,5.08-1.36s3.61,.44,5.1,1.36c1.51,.93,2.67,2.16,3.55,3.78,.89,1.64,1.32,3.48,1.32,5.61s-.43,3.9-1.32,5.54v-.02Z"/><path class="g" d="M390.96,69.17h0c-1.77-3.31-4.24-5.97-7.32-7.91-3.12-1.96-6.67-2.96-10.56-2.96-3.14,0-6.09,.67-8.75,1.99-.82,.4-1.6,.85-2.34,1.35v-13.45c0-1.74-.59-3.25-1.72-4.38-1.13-1.12-2.64-1.72-4.37-1.72s-3.17,.58-4.31,1.69c-1.17,1.13-1.78,2.65-1.78,4.4v32.15c.05,4.12,1.04,7.89,2.94,11.21,1.9,3.33,4.53,6,7.81,7.92,3.29,1.94,7.03,2.92,11.13,2.92s7.91-.98,11.2-2.92c3.27-1.93,5.91-4.59,7.83-7.91,1.93-3.33,2.91-7.12,2.91-11.26s-.89-7.86-2.66-11.15v.03Zm-27.95,5.59c.87-1.59,2.04-2.82,3.57-3.75,1.52-.92,3.18-1.37,5.08-1.37s3.61,.44,5.1,1.36c1.52,.93,2.7,2.17,3.6,3.77,.9,1.61,1.34,3.42,1.34,5.54s-.44,3.9-1.35,5.56c-.9,1.64-2.07,2.89-3.59,3.82-1.49,.91-3.16,1.36-5.1,1.36s-3.56-.45-5.08-1.36c-1.53-.92-2.69-2.16-3.56-3.8-.89-1.66-1.32-3.49-1.32-5.58s.43-3.95,1.31-5.56h0Z"/></g></g></g></g></g></g></svg>